<?xml version="1.0" standalone="no"?>
<!DOCTYPE svg PUBLIC "-//W3C//DTD SVG 20010904//EN"
 "http://www.w3.org/TR/2001/REC-SVG-20010904/DTD/svg10.dtd">
<svg version="1.0" xmlns="http://www.w3.org/2000/svg"
 width="512.000000pt" height="512.000000pt" viewBox="0 0 512.000000 512.000000"
 preserveAspectRatio="xMidYMid meet">
<metadata>
Created by potrace 1.14, written by Peter Selinger 2001-2017
</metadata>
<g transform="translate(0.000000,512.000000) scale(0.100000,-0.100000)"
fill="#000000" stroke="none">
<path d="M4678 5115 c-2 -1 -41 -5 -88 -9 -334 -23 -741 -97 -1060 -193 -80
-24 -251 -84 -295 -103 -11 -5 -56 -24 -100 -41 -298 -121 -597 -304 -844
-517 -128 -111 -442 -449 -539 -582 -14 -19 -31 -39 -37 -45 -14 -13 -167
-228 -229 -321 l-47 -70 -427 1 c-289 1 -443 -2 -477 -10 -104 -24 -195 -88
-252 -178 -23 -37 -96 -239 -239 -666 -47 -141 -52 -188 -20 -235 28 -42 142
-149 173 -162 74 -32 139 -7 221 84 33 37 88 97 123 134 l64 67 203 6 c111 3
202 3 202 0 0 -4 -9 -50 -19 -103 -18 -89 -34 -206 -35 -258 0 -19 -2 -19 -25
-8 -83 40 -177 0 -202 -87 -19 -60 1 -108 71 -179 33 -34 60 -62 60 -64 0 -3
-19 -8 -42 -12 -24 -4 -45 -8 -48 -9 -3 -1 -21 -5 -40 -9 -103 -24 -262 -129
-325 -214 -58 -79 -144 -266 -189 -412 -10 -30 -22 -64 -26 -75 -33 -72 -170
-622 -170 -678 1 -41 27 -89 63 -118 38 -29 98 -34 182 -14 39 9 81 19 95 21
70 14 419 111 520 144 201 68 369 143 452 205 62 45 129 132 172 220 35 73 63
171 65 228 1 14 17 2 62 -43 89 -91 138 -107 213 -70 82 39 104 141 47 215
-15 18 -15 19 0 7 9 -6 18 -10 20 -8 2 2 41 6 85 10 45 3 126 15 179 26 53 11
99 20 102 20 2 0 2 -64 -1 -142 -2 -79 -5 -170 -5 -204 -1 -68 2 -63 -116
-169 -151 -134 -163 -148 -176 -197 -19 -71 -1 -112 90 -203 79 -78 122 -101
179 -92 27 5 628 206 732 246 126 48 224 167 248 301 5 25 8 235 7 467 l-2
422 101 67 c316 209 717 553 927 795 259 297 474 692 623 1140 43 133 118 414
130 494 4 22 11 56 16 75 5 19 11 53 15 75 3 22 10 65 15 95 5 30 11 75 14
100 3 25 9 64 12 88 15 107 31 337 30 437 -1 93 -5 116 -23 151 -34 63 -66 97
-125 129 -50 28 -61 30 -170 32 -64 0 -118 0 -120 -2z"/>
</g>
</svg>
